<svg xmlns="http://www.w3.org/2000/svg" width="420" height="520" viewBox="0 0 420 520" role="img" aria-label="GLAMO product packshot p001">
  <defs>
    <filter id="shadow" x="-40%" y="-40%" width="180%" height="180%"><feDropShadow dx="0" dy="30" stdDeviation="22" flood-color="#241F22" flood-opacity="0.20"/></filter>
    <filter id="soft" x="-40%" y="-40%" width="180%" height="180%"><feGaussianBlur stdDeviation="24"/></filter>
    <linearGradient id="shine" x1="0" y1="0" x2="1" y2="1"><stop stop-color="#FFFFFF" stop-opacity="0.88"/><stop offset="1" stop-color="#FFFFFF" stop-opacity="0.18"/></linearGradient>
  </defs><rect width="420" height="520" fill="#FFF9F5"/>
  <rect width="420" height="520" fill="#FBE9ED" opacity="0.72"/>
  <circle cx="327.6" cy="93.6" r="92.4" fill="#FFFFFF" opacity="0.55"/>
  <circle cx="84" cy="436.8" r="84" fill="#9A6B82" opacity="0.08"/>
  <path d="M0 395.2 C 84 322.4, 159.6 447.2, 243.6 374.4 C 327.6 301.59999999999997, 378 353.6, 420 291.20000000000005 L 420 520 L 0 520Z" fill="#FFFFFF" opacity="0.42"/>
  <ellipse cx="210" cy="384.8" rx="100.8" ry="20.8" fill="#241F22" opacity="0.13"/><circle cx="84" cy="112" r="10" fill="#fff" opacity="0.82"/><circle cx="104" cy="132" r="7" fill="#fff" opacity="0.76"/><circle cx="330" cy="404" r="9" fill="#fff" opacity="0.7"/><circle cx="360" cy="380" r="5" fill="#fff" opacity="0.68"/><g transform="translate(54 420) rotate(-35) scale(0.72)" opacity="0.8"><path d="M0 0 C 36 -26 70 -20 90 10 C 52 18 22 14 0 0Z" fill="#7F9B74"/><path d="M5 2 C 34 0 56 5 82 10" fill="none" stroke="#FFFFFF" stroke-opacity="0.45" stroke-width="3"/></g><g transform="translate(324 118) rotate(150) scale(0.54)" opacity="0.8"><path d="M0 0 C 36 -26 70 -20 90 10 C 52 18 22 14 0 0Z" fill="#9CA978"/><path d="M5 2 C 34 0 56 5 82 10" fill="none" stroke="#FFFFFF" stroke-opacity="0.45" stroke-width="3"/></g><g filter="url(#shadow)" transform="translate(0 4)">
    <rect x="188" y="96" width="44" height="92" rx="18" fill="#FFFFFF"/>
    <rect x="168" y="164" width="84" height="46" rx="12" fill="#9A6B82"/>
    <rect x="166" y="202" width="88" height="206" rx="32" fill="#FFFFFF"/>
    <rect x="181" y="222" width="58" height="132" rx="22" fill="#FBE9ED"/>
    <rect x="194" y="282" width="32" height="8" rx="4" fill="#C3A067" opacity="0.9"/>
    <rect x="196" y="305" width="28" height="5" rx="2.5" fill="#9A6B82" opacity="0.32"/>
    <path d="M239 222 C 225 250 226 322 239 354" stroke="url(#shine)" stroke-width="8" stroke-linecap="round" opacity="0.55"/>
  </g><text x="210" y="470" text-anchor="middle" font-family="Arial, sans-serif" font-size="12" font-weight="700" letter-spacing="3" fill="#9A6B82" opacity="0.82">GLAMO NEPAL</text>
</svg>