<svg xmlns="http://www.w3.org/2000/svg" width="420" height="520" viewBox="0 0 420 520" role="img" aria-label="GLAMO product packshot p002">
  <defs>
    <filter id="shadow" x="-40%" y="-40%" width="180%" height="180%"><feDropShadow dx="0" dy="30" stdDeviation="22" flood-color="#241F22" flood-opacity="0.20"/></filter>
    <filter id="soft" x="-40%" y="-40%" width="180%" height="180%"><feGaussianBlur stdDeviation="24"/></filter>
    <linearGradient id="shine" x1="0" y1="0" x2="1" y2="1"><stop stop-color="#FFFFFF" stop-opacity="0.88"/><stop offset="1" stop-color="#FFFFFF" stop-opacity="0.18"/></linearGradient>
  </defs><rect width="420" height="520" fill="#FFFDFC"/>
  <rect width="420" height="520" fill="#F8EEF2" opacity="0.72"/>
  <circle cx="327.6" cy="93.6" r="92.4" fill="#FFFFFF" opacity="0.55"/>
  <circle cx="84" cy="436.8" r="84" fill="#B7748D" opacity="0.08"/>
  <path d="M0 395.2 C 84 322.4, 159.6 447.2, 243.6 374.4 C 327.6 301.59999999999997, 378 353.6, 420 291.20000000000005 L 420 520 L 0 520Z" fill="#FFFFFF" opacity="0.42"/>
  <ellipse cx="210" cy="384.8" rx="100.8" ry="20.8" fill="#241F22" opacity="0.13"/><circle cx="84" cy="112" r="10" fill="#fff" opacity="0.82"/><circle cx="104" cy="132" r="7" fill="#fff" opacity="0.76"/><circle cx="330" cy="404" r="9" fill="#fff" opacity="0.7"/><circle cx="360" cy="380" r="5" fill="#fff" opacity="0.68"/><g transform="translate(54 420) rotate(-35) scale(0.72)" opacity="0.8"><path d="M0 0 C 36 -26 70 -20 90 10 C 52 18 22 14 0 0Z" fill="#7F9B74"/><path d="M5 2 C 34 0 56 5 82 10" fill="none" stroke="#FFFFFF" stroke-opacity="0.45" stroke-width="3"/></g><g transform="translate(324 118) rotate(150) scale(0.54)" opacity="0.8"><path d="M0 0 C 36 -26 70 -20 90 10 C 52 18 22 14 0 0Z" fill="#9CA978"/><path d="M5 2 C 34 0 56 5 82 10" fill="none" stroke="#FFFFFF" stroke-opacity="0.45" stroke-width="3"/></g><g filter="url(#shadow)">
    <ellipse cx="210" cy="206" rx="86" ry="26" fill="#B7748D"/>
    <rect x="130" y="174" width="160" height="58" rx="22" fill="#B7748D"/>
    <path d="M112 226 C 126 196 294 196 308 226 L286 382 C 276 420 144 420 134 382Z" fill="#FFFFFF"/>
    <ellipse cx="210" cy="226" rx="98" ry="34" fill="#FFFDFC"/>
    <path d="M142 256 C 172 276 242 276 278 256 L270 352 C 254 378 166 378 150 352Z" fill="#F8EEF2" opacity="0.95"/>
    <rect x="166" y="314" width="88" height="8" rx="4" fill="#D8B36B" opacity="0.82"/>
    <path d="M286 245 C 270 280 270 350 278 382" stroke="url(#shine)" stroke-width="9" stroke-linecap="round" opacity="0.55"/>
  </g><text x="210" y="470" text-anchor="middle" font-family="Arial, sans-serif" font-size="12" font-weight="700" letter-spacing="3" fill="#B7748D" opacity="0.82">GLAMO NEPAL</text>
</svg>