<svg xmlns="http://www.w3.org/2000/svg" width="1000" height="1000" viewBox="0 0 1000 1000" role="img" aria-label="Rose Water Calm Toner">
  
  <defs>
    <linearGradient id="bg-p005-texture" x1="0" y1="0" x2="1" y2="1">
      <stop offset="0" stop-color="#FFF8F8"/>
      <stop offset="0.58" stop-color="#F7E6EE"/>
      <stop offset="1" stop-color="#FFFDFC"/>
    </linearGradient>
    <radialGradient id="halo-p005-texture" cx="63%" cy="26%" r="64%">
      <stop offset="0" stop-color="#FFFFFF" stop-opacity="0.96"/>
      <stop offset="0.54" stop-color="#FFFFFF" stop-opacity="0.32"/>
      <stop offset="1" stop-color="#FFFFFF" stop-opacity="0"/>
    </radialGradient>
    <linearGradient id="glass-p005-texture" x1="0" x2="1">
      <stop offset="0" stop-color="#FFFFFF" stop-opacity="0.98"/>
      <stop offset="0.45" stop-color="#FFFFFF" stop-opacity="0.84"/>
      <stop offset="1" stop-color="#F9EAF2" stop-opacity="0.92"/>
    </linearGradient>
    <filter id="shadow-p005-texture" x="-40%" y="-40%" width="180%" height="180%">
      <feDropShadow dx="0" dy="28" stdDeviation="26" flood-color="#1A0A1E" flood-opacity="0.22"/>
    </filter>
    <filter id="softshadow-p005-texture" x="-50%" y="-50%" width="200%" height="200%">
      <feDropShadow dx="0" dy="16" stdDeviation="18" flood-color="#8B3A8F" flood-opacity="0.16"/>
    </filter>
  </defs><rect width="1000" height="1000" rx="0" fill="url(#bg-p005-texture)"/>
  <circle cx="780" cy="178" r="142" fill="url(#halo-p005-texture)"/>
  <circle cx="154" cy="770" r="126" fill="#FFFFFF" opacity="0.48"/>
  <circle cx="205" cy="206" r="72" fill="#F2CEDB" opacity="0.32"/>
  <circle cx="842" cy="760" r="112" fill="#FFFFFF" opacity="0.30"/>
  <path d="M0 724 C172 635 356 741 507 660 C671 571 802 627 1000 542 L1000 1000 L0 1000 Z" fill="#FFFDFC" opacity="0.76"/>
  <ellipse cx="508" cy="810" rx="238" ry="52" fill="#1A0A1E" opacity="0.10"/>
  <g opacity="0.72">
    <path d="M154 646 C116 619 121 561 174 548 C209 582 198 628 154 646Z" fill="#9D5C7B" opacity="0.22"/>
    <path d="M815 428 C856 399 912 425 912 481 C860 497 823 474 815 428Z" fill="#C9A84C" opacity="0.20"/>
    <path d="M785 644 l17 31 35 8 -31 18 -4 36 -25 -26 -37 8 18 -33 -19 -31 36 7z" fill="#C9A84C" opacity="0.40"/>
  </g>
  <g opacity="0.95">
    <circle cx="500" cy="470" r="180" fill="#FFFFFF" opacity="0.85" filter="url(#softshadow-p005-texture)"/>
    <circle cx="500" cy="470" r="132" fill="#F2CEDB" opacity="0.72"/>
    <path d="M380 504 C428 420 510 400 620 484 C548 534 458 544 380 504Z" fill="#9D5C7B" opacity="0.32"/>
    <path d="M430 394 C453 342 522 333 568 380 C511 395 463 403 430 394Z" fill="#FFFFFF" opacity="0.70"/>
    <text x="500" y="742" text-anchor="middle" font-family="DM Sans, Arial, sans-serif" font-size="23" font-weight="700" letter-spacing="3" fill="#241F22">HIMALAYAN BOTANICS</text>
    <text x="500" y="784" text-anchor="middle" font-family="Cormorant Garamond, Georgia, serif" font-size="33" font-weight="600" fill="#9D5C7B">Rose Water Calm</text>
    <text x="500" y="822" text-anchor="middle" font-family="Cormorant Garamond, Georgia, serif" font-size="33" font-weight="600" fill="#9D5C7B">Toner</text>
    <line x1="335.0" y1="868" x2="665.0" y2="868" stroke="#C9A84C" stroke-width="10" stroke-linecap="round" opacity="0.8"/>
  </g>
</svg>
