<svg xmlns="http://www.w3.org/2000/svg" width="840" height="1040" viewBox="0 0 420 520" role="img" aria-label="Rose Water Calm Toner product photography"><defs><linearGradient id="bg" x1="0" y1="0" x2="1" y2="1"><stop stop-color="#FBEAED"/><stop offset="0.55" stop-color="#F7F1EA"/><stop offset="1" stop-color="#FFFFFF"/></linearGradient><filter id="s" x="-20%" y="-20%" width="140%" height="140%"><feDropShadow dx="0" dy="20" stdDeviation="18" flood-color="#432134" flood-opacity="0.18"/></filter></defs><rect width="420" height="520" fill="url(#bg)"/><rect x="18" y="18" width="384" height="484" rx="36" fill="#fff" opacity="0.35"/><circle cx="104" cy="88" r="54" fill="#E6C5D2" opacity="0.28"/><circle cx="282" cy="294" r="82" fill="#fff" opacity="0.52"/><path d="M60 304 C128 256 184 326 270 270 C320 238 356 262 382 300 L382 420 L60 420 Z" fill="#F7F1EA" opacity="0.82"/><ellipse cx="210" cy="346" rx="96" ry="20" fill="#3b2932" opacity="0.12"/><g filter="url(#s)"><g transform="translate(-16 0) rotate(2.8 210 220)"><rect x="166" y="122" width="88" height="216" rx="34" fill="#fff"/><rect x="184" y="88" width="52" height="48" rx="14" fill="#9A6B82"/><rect x="181" y="164" width="58" height="96" rx="20" fill="#FBEAED"/><line x1="190" y1="212" x2="230" y2="212" stroke="#E6C5D2" stroke-width="7" stroke-linecap="round"/><text x="210" y="244" text-anchor="middle" font-size="15" font-weight="700" fill="#9A6B82">Rose Water</text><text x="210" y="268" text-anchor="middle" font-size="10" letter-spacing="2" fill="#7c7074">Himalayan Botanics</text></g></g><circle cx="344" cy="126" r="48" fill="#fff" opacity="0.45"/><circle cx="80" cy="412" r="26" fill="#E6C5D2" opacity="0.28"/></svg>