<svg xmlns="http://www.w3.org/2000/svg" width="1000" height="1000" viewBox="0 0 1000 1000" role="img" aria-label="Shea Soft Body Lotion">
  
  <defs>
    <linearGradient id="bg-p015" x1="0" y1="0" x2="1" y2="1">
      <stop offset="0" stop-color="#FFF9F0"/>
      <stop offset="0.58" stop-color="#EED9C5"/>
      <stop offset="1" stop-color="#FFFDFC"/>
    </linearGradient>
    <radialGradient id="halo-p015" cx="63%" cy="26%" r="64%">
      <stop offset="0" stop-color="#FFFFFF" stop-opacity="0.96"/>
      <stop offset="0.54" stop-color="#FFFFFF" stop-opacity="0.32"/>
      <stop offset="1" stop-color="#FFFFFF" stop-opacity="0"/>
    </radialGradient>
    <linearGradient id="glass-p015" x1="0" x2="1">
      <stop offset="0" stop-color="#FFFFFF" stop-opacity="0.98"/>
      <stop offset="0.45" stop-color="#FFFFFF" stop-opacity="0.84"/>
      <stop offset="1" stop-color="#F9EAF2" stop-opacity="0.92"/>
    </linearGradient>
    <filter id="shadow-p015" x="-40%" y="-40%" width="180%" height="180%">
      <feDropShadow dx="0" dy="28" stdDeviation="26" flood-color="#1A0A1E" flood-opacity="0.22"/>
    </filter>
    <filter id="softshadow-p015" x="-50%" y="-50%" width="200%" height="200%">
      <feDropShadow dx="0" dy="16" stdDeviation="18" flood-color="#8B3A8F" flood-opacity="0.16"/>
    </filter>
  </defs><rect width="1000" height="1000" rx="0" fill="url(#bg-p015)"/>
  <circle cx="780" cy="178" r="142" fill="url(#halo-p015)"/>
  <circle cx="154" cy="770" r="126" fill="#FFFFFF" opacity="0.48"/>
  <circle cx="205" cy="206" r="72" fill="#EDD2C2" opacity="0.32"/>
  <circle cx="842" cy="760" r="112" fill="#FFFFFF" opacity="0.30"/>
  <path d="M0 724 C172 635 356 741 507 660 C671 571 802 627 1000 542 L1000 1000 L0 1000 Z" fill="#FFFDFC" opacity="0.76"/>
  <ellipse cx="508" cy="810" rx="238" ry="52" fill="#1A0A1E" opacity="0.10"/>
  <g opacity="0.72">
    <path d="M154 646 C116 619 121 561 174 548 C209 582 198 628 154 646Z" fill="#A06A49" opacity="0.22"/>
    <path d="M815 428 C856 399 912 425 912 481 C860 497 823 474 815 428Z" fill="#C9A84C" opacity="0.20"/>
    <path d="M785 644 l17 31 35 8 -31 18 -4 36 -25 -26 -37 8 18 -33 -19 -31 36 7z" fill="#C9A84C" opacity="0.40"/>
  </g>
  <g transform="translate(-90 -55) scale(1.18)"><g filter="url(#shadow-p015)">
    <path d="M375 250 H625 L668 776 Q500 845 332 776 Z" fill="url(#glass-p015)"/>
    <rect x="376" y="212" width="248" height="74" rx="24" fill="#7A4F3B"/>
    <rect x="405" y="414" width="190" height="220" rx="50" fill="#EDD2C2" opacity="0.58"/>
    <line x1="405" y1="681" x2="595" y2="681" stroke="#C9A84C" stroke-width="13" stroke-linecap="round"/>
    <text x="500" y="496" text-anchor="middle" font-family="DM Sans, Arial, sans-serif" font-size="23" font-weight="700" letter-spacing="3" fill="#241F22">GLAMO EDIT</text>
    <text x="500" y="538" text-anchor="middle" font-family="Cormorant Garamond, Georgia, serif" font-size="33" font-weight="600" fill="#A06A49">Shea Soft Body</text>
    <text x="500" y="576" text-anchor="middle" font-family="Cormorant Garamond, Georgia, serif" font-size="33" font-weight="600" fill="#A06A49">Lotion</text>
    <line x1="405.0" y1="622" x2="595.0" y2="622" stroke="#C9A84C" stroke-width="10" stroke-linecap="round" opacity="0.8"/>
    <path d="M621 312 C650 416 642 598 592 745" stroke="#FFFFFF" stroke-width="20" stroke-linecap="round" opacity="0.58"/>
  </g></g>
</svg>
