<svg xmlns="http://www.w3.org/2000/svg" width="840" height="1040" viewBox="0 0 420 520" role="img" aria-label="Mogra &amp; Sandalwood Eau de Parfum product photography"><defs><linearGradient id="bg" x1="0" y1="0" x2="1" y2="1"><stop stop-color="#F5E9F5"/><stop offset="0.55" stop-color="#FFFAFD"/><stop offset="1" stop-color="#FFFFFF"/></linearGradient><filter id="s" x="-20%" y="-20%" width="140%" height="140%"><feDropShadow dx="0" dy="20" stdDeviation="18" flood-color="#432134" flood-opacity="0.18"/></filter></defs><rect width="420" height="520" fill="url(#bg)"/><rect x="18" y="18" width="384" height="484" rx="36" fill="#fff" opacity="0.35"/><circle cx="104" cy="88" r="54" fill="#CFA8D4" opacity="0.28"/><circle cx="282" cy="294" r="82" fill="#fff" opacity="0.52"/><path d="M60 304 C128 256 184 326 270 270 C320 238 356 262 382 300 L382 420 L60 420 Z" fill="#FFFAFD" opacity="0.82"/><ellipse cx="210" cy="346" rx="96" ry="20" fill="#3b2932" opacity="0.12"/><g filter="url(#s)"><g transform="translate(0 0) rotate(0 210 220)"><rect x="190" y="90" width="40" height="40" rx="8" fill="#7F5B88"/><rect x="160" y="132" width="100" height="190" rx="36" fill="#fff"/><rect x="176" y="162" width="68" height="94" rx="24" fill="#F5E9F5"/><circle cx="210" cy="210" r="25" fill="#CFA8D4" opacity="0.75"/><text x="210" y="278" text-anchor="middle" font-size="16" font-weight="700" fill="#7F5B88">Mogra &amp;</text><text x="210" y="300" text-anchor="middle" font-size="10" letter-spacing="2" fill="#7c7074">Luxe Aura</text></g></g><circle cx="344" cy="126" r="48" fill="#fff" opacity="0.45"/><circle cx="80" cy="412" r="26" fill="#CFA8D4" opacity="0.28"/></svg>