<svg xmlns="http://www.w3.org/2000/svg" width="840" height="1040" viewBox="0 0 420 520" role="img" aria-label="Precision Makeup Sponge Duo product photography"><defs><linearGradient id="bg" x1="0" y1="0" x2="1" y2="1"><stop stop-color="#F1ECE7"/><stop offset="0.55" stop-color="#FFFDF9"/><stop offset="1" stop-color="#FFFFFF"/></linearGradient><filter id="s" x="-20%" y="-20%" width="140%" height="140%"><feDropShadow dx="0" dy="20" stdDeviation="18" flood-color="#432134" flood-opacity="0.18"/></filter></defs><rect width="420" height="520" fill="url(#bg)"/><rect x="18" y="18" width="384" height="484" rx="36" fill="#fff" opacity="0.35"/><circle cx="104" cy="88" r="54" fill="#C9B8A8" opacity="0.28"/><circle cx="282" cy="294" r="82" fill="#fff" opacity="0.52"/><path d="M60 304 C128 256 184 326 270 270 C320 238 356 262 382 300 L382 420 L60 420 Z" fill="#FFFDF9" opacity="0.82"/><ellipse cx="210" cy="346" rx="96" ry="20" fill="#3b2932" opacity="0.12"/><g filter="url(#s)"><g transform="translate(16 0) rotate(2.8 210 220)"><path d="M210 92 c72 84 90 154 70 204 c-18 44 -58 66 -102 48 c-48 -20 -64 -78 -42 -132 c12 -30 32 -70 74 -120z" fill="#C9B8A8"/><path d="M184 140 c-24 52 -36 112 -12 154" fill="#fff" opacity="0.2"/><text x="210" y="372" text-anchor="middle" font-size="15" font-weight="700" fill="#6C5A52">Precision Makeup</text></g></g><circle cx="344" cy="126" r="48" fill="#fff" opacity="0.45"/><circle cx="80" cy="412" r="26" fill="#C9B8A8" opacity="0.28"/></svg>