<svg xmlns="http://www.w3.org/2000/svg" width="1000" height="1000" viewBox="0 0 1000 1000" role="img" aria-label="Precision Makeup Sponge Duo">
  
  <defs>
    <linearGradient id="bg-p019-detail" x1="0" y1="0" x2="1" y2="1">
      <stop offset="0" stop-color="#FFFDF8"/>
      <stop offset="0.58" stop-color="#EDE3D8"/>
      <stop offset="1" stop-color="#FFFDFC"/>
    </linearGradient>
    <radialGradient id="halo-p019-detail" cx="63%" cy="26%" r="64%">
      <stop offset="0" stop-color="#FFFFFF" stop-opacity="0.96"/>
      <stop offset="0.54" stop-color="#FFFFFF" stop-opacity="0.32"/>
      <stop offset="1" stop-color="#FFFFFF" stop-opacity="0"/>
    </radialGradient>
    <linearGradient id="glass-p019-detail" x1="0" x2="1">
      <stop offset="0" stop-color="#FFFFFF" stop-opacity="0.98"/>
      <stop offset="0.45" stop-color="#FFFFFF" stop-opacity="0.84"/>
      <stop offset="1" stop-color="#F9EAF2" stop-opacity="0.92"/>
    </linearGradient>
    <filter id="shadow-p019-detail" x="-40%" y="-40%" width="180%" height="180%">
      <feDropShadow dx="0" dy="28" stdDeviation="26" flood-color="#1A0A1E" flood-opacity="0.22"/>
    </filter>
    <filter id="softshadow-p019-detail" x="-50%" y="-50%" width="200%" height="200%">
      <feDropShadow dx="0" dy="16" stdDeviation="18" flood-color="#8B3A8F" flood-opacity="0.16"/>
    </filter>
  </defs><rect width="1000" height="1000" rx="0" fill="url(#bg-p019-detail)"/>
  <circle cx="780" cy="178" r="142" fill="url(#halo-p019-detail)"/>
  <circle cx="154" cy="770" r="126" fill="#FFFFFF" opacity="0.48"/>
  <circle cx="205" cy="206" r="72" fill="#D9C7B8" opacity="0.32"/>
  <circle cx="842" cy="760" r="112" fill="#FFFFFF" opacity="0.30"/>
  <path d="M0 724 C172 635 356 741 507 660 C671 571 802 627 1000 542 L1000 1000 L0 1000 Z" fill="#FFFDFC" opacity="0.76"/>
  <ellipse cx="508" cy="810" rx="238" ry="52" fill="#1A0A1E" opacity="0.10"/>
  <g opacity="0.72">
    <path d="M154 646 C116 619 121 561 174 548 C209 582 198 628 154 646Z" fill="#856E5E" opacity="0.22"/>
    <path d="M815 428 C856 399 912 425 912 481 C860 497 823 474 815 428Z" fill="#C9A84C" opacity="0.20"/>
    <path d="M785 644 l17 31 35 8 -31 18 -4 36 -25 -26 -37 8 18 -33 -19 -31 36 7z" fill="#C9A84C" opacity="0.40"/>
  </g>
  <g transform="translate(112 -70) scale(1.12)"><g filter="url(#shadow-p019-detail)">
    <rect x="410" y="390" width="48" height="380" rx="24" fill="#856E5E"/>
    <rect x="520" y="365" width="50" height="405" rx="25" fill="#C9A84C"/>
    <path d="M372 290 C378 214 500 208 506 292 C462 340 412 344 372 290Z" fill="#332A34"/>
    <path d="M492 278 C499 195 638 196 646 280 C606 338 538 340 492 278Z" fill="#272027"/>
    <text x="500" y="842" text-anchor="middle" font-family="DM Sans, Arial, sans-serif" font-size="23" font-weight="700" letter-spacing="3" fill="#241F22">BEAUTY TOOLS</text>
    <text x="500" y="884" text-anchor="middle" font-family="Cormorant Garamond, Georgia, serif" font-size="33" font-weight="600" fill="#856E5E">Precision Makeup</text>
    <text x="500" y="922" text-anchor="middle" font-family="Cormorant Garamond, Georgia, serif" font-size="33" font-weight="600" fill="#856E5E">Sponge Duo</text>
    <line x1="370.0" y1="968" x2="630.0" y2="968" stroke="#C9A84C" stroke-width="10" stroke-linecap="round" opacity="0.8"/>
  </g></g>
  <g transform="translate(-172 112) scale(.62)" opacity="0.98"><g filter="url(#shadow-p019-detail)">
    <rect x="410" y="390" width="48" height="380" rx="24" fill="#856E5E"/>
    <rect x="520" y="365" width="50" height="405" rx="25" fill="#C9A84C"/>
    <path d="M372 290 C378 214 500 208 506 292 C462 340 412 344 372 290Z" fill="#332A34"/>
    <path d="M492 278 C499 195 638 196 646 280 C606 338 538 340 492 278Z" fill="#272027"/>
    <text x="500" y="842" text-anchor="middle" font-family="DM Sans, Arial, sans-serif" font-size="23" font-weight="700" letter-spacing="3" fill="#241F22">BEAUTY TOOLS</text>
    <text x="500" y="884" text-anchor="middle" font-family="Cormorant Garamond, Georgia, serif" font-size="33" font-weight="600" fill="#856E5E">Precision Makeup</text>
    <text x="500" y="922" text-anchor="middle" font-family="Cormorant Garamond, Georgia, serif" font-size="33" font-weight="600" fill="#856E5E">Sponge Duo</text>
    <line x1="370.0" y1="968" x2="630.0" y2="968" stroke="#C9A84C" stroke-width="10" stroke-linecap="round" opacity="0.8"/>
  </g></g>
  <rect x="78" y="78" width="260" height="70" rx="35" fill="#FFFFFF" opacity="0.82"/>
  <text x="112" y="122" font-family="DM Sans, Arial" font-size="22" font-weight="700" letter-spacing="4" fill="#856E5E">TOOLS</text>
</svg>
