<svg xmlns="http://www.w3.org/2000/svg" width="840" height="1040" viewBox="0 0 420 520" role="img" aria-label="Beauty of Joseon Relief Sun Rice SPF 50+ product photography"><defs><linearGradient id="bg" x1="0" y1="0" x2="1" y2="1"><stop stop-color="#FBEAED"/><stop offset="0.55" stop-color="#F7F1EA"/><stop offset="1" stop-color="#FFFFFF"/></linearGradient><filter id="s" x="-20%" y="-20%" width="140%" height="140%"><feDropShadow dx="0" dy="20" stdDeviation="18" flood-color="#432134" flood-opacity="0.18"/></filter></defs><rect width="420" height="520" fill="url(#bg)"/><rect x="18" y="18" width="384" height="484" rx="36" fill="#fff" opacity="0.35"/><circle cx="104" cy="88" r="54" fill="#E6C5D2" opacity="0.28"/><circle cx="282" cy="294" r="82" fill="#fff" opacity="0.52"/><path d="M60 304 C128 256 184 326 270 270 C320 238 356 262 382 300 L382 420 L60 420 Z" fill="#F7F1EA" opacity="0.82"/><ellipse cx="210" cy="346" rx="96" ry="20" fill="#3b2932" opacity="0.12"/><g filter="url(#s)"><g transform="translate(-16 2) rotate(-1.4 210 225)"><rect x="165" y="120" width="90" height="218" rx="36" fill="#fff"/><rect x="178" y="148" width="64" height="108" rx="22" fill="#FBEAED"/><rect x="182" y="304" width="56" height="26" rx="8" fill="#9A6B82"/><path d="M176 120 h68 l-9 -34 h-50z" fill="#E6C5D2"/><line x1="185" y1="202" x2="235" y2="202" stroke="#E6C5D2" stroke-width="7" stroke-linecap="round"/><text x="210" y="234" text-anchor="middle" font-size="15" font-weight="700" fill="#9A6B82">Beauty of</text><text x="210" y="258" text-anchor="middle" font-size="10" letter-spacing="2" fill="#7c7074">Beauty of Joseon</text></g></g><circle cx="344" cy="126" r="48" fill="#fff" opacity="0.45"/><circle cx="80" cy="412" r="26" fill="#E6C5D2" opacity="0.28"/></svg>