<svg xmlns="http://www.w3.org/2000/svg" width="840" height="1040" viewBox="0 0 420 520" role="img" aria-label="SUGAR Cosmetics Kohl of Honour Kajal product photography"><defs><linearGradient id="bg" x1="0" y1="0" x2="1" y2="1"><stop stop-color="#FCE2E7"/><stop offset="0.55" stop-color="#FFF6EF"/><stop offset="1" stop-color="#FFFFFF"/></linearGradient><filter id="s" x="-20%" y="-20%" width="140%" height="140%"><feDropShadow dx="0" dy="20" stdDeviation="18" flood-color="#432134" flood-opacity="0.18"/></filter></defs><rect width="420" height="520" fill="url(#bg)"/><rect x="18" y="18" width="384" height="484" rx="36" fill="#fff" opacity="0.35"/><circle cx="104" cy="88" r="54" fill="#D98BA3" opacity="0.28"/><circle cx="282" cy="294" r="82" fill="#fff" opacity="0.52"/><path d="M60 304 C128 256 184 326 270 270 C320 238 356 262 382 300 L382 420 L60 420 Z" fill="#FFF6EF" opacity="0.82"/><ellipse cx="210" cy="346" rx="96" ry="20" fill="#3b2932" opacity="0.12"/><g filter="url(#s)"><g transform="translate(8 0) rotate(2.8 210 220)"><rect x="132" y="170" width="60" height="170" rx="18" fill="#8B3A5B"/><rect x="220" y="98" width="42" height="230" rx="16" fill="#151116"/><line x1="240" y1="102" x2="274" y2="64" stroke="#8B3A5B" stroke-width="7" stroke-linecap="round"/><line x1="280" y1="58" x2="300" y2="38" stroke="#8B3A5B" stroke-width="4" stroke-linecap="round"/><rect x="148" y="202" width="28" height="74" rx="10" fill="#D98BA3"/><text x="162" y="300" text-anchor="middle" font-size="10" font-weight="700" fill="#fff">SUGAR Cosmetics</text></g></g><circle cx="344" cy="126" r="48" fill="#fff" opacity="0.45"/><circle cx="80" cy="412" r="26" fill="#D98BA3" opacity="0.28"/></svg>