<svg xmlns="http://www.w3.org/2000/svg" width="1000" height="1000" viewBox="0 0 1000 1000" role="img" aria-label="Swiss Beauty Liquid Concealer">
  
  <defs>
    <linearGradient id="bg-p034" x1="0" y1="0" x2="1" y2="1">
      <stop offset="0" stop-color="#FFF6F4"/>
      <stop offset="0.58" stop-color="#F4D6DA"/>
      <stop offset="1" stop-color="#FFFDFC"/>
    </linearGradient>
    <radialGradient id="halo-p034" cx="63%" cy="26%" r="64%">
      <stop offset="0" stop-color="#FFFFFF" stop-opacity="0.96"/>
      <stop offset="0.54" stop-color="#FFFFFF" stop-opacity="0.32"/>
      <stop offset="1" stop-color="#FFFFFF" stop-opacity="0"/>
    </radialGradient>
    <linearGradient id="glass-p034" x1="0" x2="1">
      <stop offset="0" stop-color="#FFFFFF" stop-opacity="0.98"/>
      <stop offset="0.45" stop-color="#FFFFFF" stop-opacity="0.84"/>
      <stop offset="1" stop-color="#F9EAF2" stop-opacity="0.92"/>
    </linearGradient>
    <filter id="shadow-p034" x="-40%" y="-40%" width="180%" height="180%">
      <feDropShadow dx="0" dy="28" stdDeviation="26" flood-color="#1A0A1E" flood-opacity="0.22"/>
    </filter>
    <filter id="softshadow-p034" x="-50%" y="-50%" width="200%" height="200%">
      <feDropShadow dx="0" dy="16" stdDeviation="18" flood-color="#8B3A8F" flood-opacity="0.16"/>
    </filter>
  </defs><rect width="1000" height="1000" rx="0" fill="url(#bg-p034)"/>
  <circle cx="780" cy="178" r="142" fill="url(#halo-p034)"/>
  <circle cx="154" cy="770" r="126" fill="#FFFFFF" opacity="0.48"/>
  <circle cx="205" cy="206" r="72" fill="#F1B9C7" opacity="0.32"/>
  <circle cx="842" cy="760" r="112" fill="#FFFFFF" opacity="0.30"/>
  <path d="M0 724 C172 635 356 741 507 660 C671 571 802 627 1000 542 L1000 1000 L0 1000 Z" fill="#FFFDFC" opacity="0.76"/>
  <ellipse cx="508" cy="810" rx="238" ry="52" fill="#1A0A1E" opacity="0.10"/>
  <g opacity="0.72">
    <path d="M154 646 C116 619 121 561 174 548 C209 582 198 628 154 646Z" fill="#B4516D" opacity="0.22"/>
    <path d="M815 428 C856 399 912 425 912 481 C860 497 823 474 815 428Z" fill="#C9A84C" opacity="0.20"/>
    <path d="M785 644 l17 31 35 8 -31 18 -4 36 -25 -26 -37 8 18 -33 -19 -31 36 7z" fill="#C9A84C" opacity="0.40"/>
  </g>
  <g transform="translate(-90 -55) scale(1.18)"><g filter="url(#shadow-p034)">
    <rect x="459.0" y="227" width="82" height="74" rx="22" fill="#2A1A24"/>
    <rect x="375.0" y="285" width="250" height="470" rx="78" fill="url(#glass-p034)"/>
    <rect x="420.0" y="393" width="160" height="196" rx="54" fill="#F1B9C7" opacity="0.60"/>
    <rect x="412.0" y="525" width="176" height="16" rx="8" fill="#B4516D" opacity="0.42"/>
    <rect x="417.0" y="563" width="166" height="14" rx="7" fill="#C9A84C" opacity="0.56"/>
    <text x="500" y="631" text-anchor="middle" font-family="DM Sans, Arial, sans-serif" font-size="23" font-weight="700" letter-spacing="3" fill="#241F22">SWISS BEAUTY</text>
    <text x="500" y="673" text-anchor="middle" font-family="Cormorant Garamond, Georgia, serif" font-size="33" font-weight="600" fill="#B4516D">Swiss Beauty Liquid</text>
    <text x="500" y="711" text-anchor="middle" font-family="Cormorant Garamond, Georgia, serif" font-size="33" font-weight="600" fill="#B4516D">Concealer</text>
    <line x1="402.0" y1="757" x2="598.0" y2="757" stroke="#C9A84C" stroke-width="10" stroke-linecap="round" opacity="0.8"/>
    <path d="M569.0 327 C599.0 391 597.0 601 567.0 705" stroke="#FFFFFF" stroke-width="22" stroke-linecap="round" opacity="0.62"/>
  </g></g>
</svg>
