<svg xmlns="http://www.w3.org/2000/svg" width="840" height="1040" viewBox="0 0 420 520" role="img" aria-label="Kathmandu Glow Bridal Lip &amp; Cheek Tint product photography"><defs><linearGradient id="bg" x1="0" y1="0" x2="1" y2="1"><stop stop-color="#FCE2E7"/><stop offset="0.55" stop-color="#FFF6EF"/><stop offset="1" stop-color="#FFFFFF"/></linearGradient><filter id="s" x="-20%" y="-20%" width="140%" height="140%"><feDropShadow dx="0" dy="20" stdDeviation="18" flood-color="#432134" flood-opacity="0.18"/></filter></defs><rect width="420" height="520" fill="url(#bg)"/><rect x="18" y="18" width="384" height="484" rx="36" fill="#fff" opacity="0.35"/><circle cx="104" cy="88" r="54" fill="#D98BA3" opacity="0.28"/><circle cx="282" cy="294" r="82" fill="#fff" opacity="0.52"/><path d="M60 304 C128 256 184 326 270 270 C320 238 356 262 382 300 L382 420 L60 420 Z" fill="#FFF6EF" opacity="0.82"/><ellipse cx="210" cy="346" rx="96" ry="20" fill="#3b2932" opacity="0.12"/><g filter="url(#s)"><g transform="translate(-16 0) rotate(2.8 210 225)"><rect x="176" y="168" width="68" height="164" rx="20" fill="#8B3A5B"/><rect x="188" y="186" width="44" height="116" rx="16" fill="#fff" opacity="0.18"/><path d="M190 168 l18 -80 h28 l-5 80z" fill="#D98BA3"/><path d="M208 88 c18 18 10 52 -8 80" fill="#fff" opacity="0.22"/><text x="210" y="246" text-anchor="middle" font-size="14" font-weight="700" fill="#fff">Kathmandu Glow</text><text x="210" y="272" text-anchor="middle" font-size="9" letter-spacing="2" fill="#fff" opacity="0.75">Kathmandu Glow</text></g></g><circle cx="344" cy="126" r="48" fill="#fff" opacity="0.45"/><circle cx="80" cy="412" r="26" fill="#D98BA3" opacity="0.28"/></svg>