<svg xmlns="http://www.w3.org/2000/svg" width="840" height="1040" viewBox="0 0 420 520" role="img" aria-label="Natura Nepal Rosemary Scalp Oil product photography"><defs><linearGradient id="bg" x1="0" y1="0" x2="1" y2="1"><stop stop-color="#F2E7DB"/><stop offset="0.55" stop-color="#FFF9F2"/><stop offset="1" stop-color="#FFFFFF"/></linearGradient><filter id="s" x="-20%" y="-20%" width="140%" height="140%"><feDropShadow dx="0" dy="20" stdDeviation="18" flood-color="#432134" flood-opacity="0.18"/></filter></defs><rect width="420" height="520" fill="url(#bg)"/><rect x="18" y="18" width="384" height="484" rx="36" fill="#fff" opacity="0.35"/><circle cx="104" cy="88" r="54" fill="#D2A66E" opacity="0.28"/><circle cx="282" cy="294" r="82" fill="#fff" opacity="0.52"/><path d="M60 304 C128 256 184 326 270 270 C320 238 356 262 382 300 L382 420 L60 420 Z" fill="#FFF9F2" opacity="0.82"/><ellipse cx="210" cy="346" rx="96" ry="20" fill="#3b2932" opacity="0.12"/><g filter="url(#s)"><g transform="translate(8 0) rotate(-2.8 210 220)"><rect x="176" y="110" width="68" height="42" rx="10" fill="#5F473D"/><rect x="198" y="72" width="24" height="52" rx="10" fill="#fff"/><rect x="174" y="148" width="72" height="178" rx="28" fill="#fff"/><rect x="184" y="166" width="52" height="110" rx="18" fill="#F2E7DB"/><line x1="195" y1="205" x2="225" y2="205" stroke="#D2A66E" stroke-width="7" stroke-linecap="round"/><text x="210" y="240" text-anchor="middle" font-size="16" font-weight="700" fill="#5F473D">Natura Nepal</text><text x="210" y="263" text-anchor="middle" font-size="10" letter-spacing="2" fill="#7c7074">Natura Nepal</text></g></g><circle cx="344" cy="126" r="48" fill="#fff" opacity="0.45"/><circle cx="80" cy="412" r="26" fill="#D2A66E" opacity="0.28"/></svg>