<svg width="900" height="1100" viewBox="0 0 900 1100" fill="none" xmlns="http://www.w3.org/2000/svg" role="img" aria-labelledby="title desc">
  <title id="title">GLAMO New Year beauty edit</title>
  <desc id="desc">A premium beauty arrangement in plum, blush and champagne tones.</desc>
  <rect width="900" height="1100" rx="72" fill="#FDF6F9"/>
  <circle cx="690" cy="170" r="160" fill="#D4A0D7" fill-opacity="0.45"/>
  <circle cx="160" cy="910" r="210" fill="#8B3A8F" fill-opacity="0.14"/>
  <path d="M123 248C268 126 492 122 637 250C790 385 778 622 641 761C488 916 232 891 103 712C-7 560 4 348 123 248Z" fill="#FFFFFF" fill-opacity="0.7"/>
  <rect x="322" y="330" width="250" height="520" rx="86" fill="#8B3A8F"/>
  <rect x="366" y="250" width="162" height="152" rx="40" fill="#C9A84C"/>
  <rect x="383" y="286" width="128" height="74" rx="25" fill="#FDF6F9" fill-opacity="0.76"/>
  <rect x="255" y="620" width="158" height="285" rx="52" fill="#D4A0D7"/>
  <rect x="488" y="560" width="156" height="346" rx="52" fill="#1A0A1E"/>
  <circle cx="338" cy="570" r="82" fill="#C9A84C"/>
  <circle cx="337" cy="570" r="54" fill="#FDF6F9" fill-opacity="0.85"/>
  <path d="M448 493C494 546 526 621 526 706C526 744 520 782 508 815C487 832 467 840 447 840C427 840 407 832 386 815C374 779 368 742 368 706C368 621 401 546 448 493Z" fill="#FDF6F9" fill-opacity="0.95"/>
  <path d="M185 222C208 252 239 270 276 276C239 282 208 300 185 330C162 300 131 282 94 276C131 270 162 252 185 222Z" fill="#C9A84C"/>
  <path d="M715 760C732 782 755 795 783 800C755 805 732 818 715 840C698 818 675 805 647 800C675 795 698 782 715 760Z" fill="#C9A84C"/>
  <text x="450" y="996" text-anchor="middle" font-family="Georgia, serif" font-size="58" font-weight="700" fill="#1A0A1E">New Year 2083</text>
  <text x="450" y="1046" text-anchor="middle" font-family="Arial, sans-serif" font-size="28" font-weight="600" letter-spacing="4" fill="#8B3A8F">BEAUTY EDIT</text>
</svg>
