<svg xmlns="http://www.w3.org/2000/svg" width="1300" height="900" viewBox="0 0 1300 900" role="img" aria-label="new arrivals collection visual"><defs><filter id="s"><feDropShadow dx="0" dy="34" stdDeviation="28" flood-color="#241F22" flood-opacity=".18"/></filter></defs><rect width="1300" height="900" fill="#FFFDFC"/><rect width="1300" height="900" fill="#F8EEF2" opacity=".78"/><circle cx="1030" cy="160" r="210" fill="#fff" opacity=".55"/><circle cx="220" cy="720" r="160" fill="#9A6B82" opacity=".09"/><path d="M0 690 C230 560 410 760 650 610 C880 468 1040 610 1300 510 L1300 900 L0 900Z" fill="#fff" opacity=".50"/><g filter="url(#s)"><rect x="520" y="210" width="154" height="360" rx="58" fill="#fff"/><rect x="548" y="274" width="98" height="166" rx="38" fill="#FBE9ED"/><rect x="548" y="145" width="98" height="88" rx="24" fill="#9A6B82"/><rect x="570" y="386" width="56" height="12" rx="6" fill="#C3A067"/><rect x="710" y="280" width="132" height="290" rx="48" fill="#fff"/><rect x="736" y="334" width="80" height="116" rx="28" fill="#FBE9ED"/><rect x="744" y="218" width="66" height="82" rx="20" fill="#E5C6D4"/><circle cx="420" cy="445" r="98" fill="#fff"/><circle cx="420" cy="445" r="70" fill="#FBE9ED"/><path d="M355 455 A68 52 0 0 1 485 455" fill="#9A6B82" opacity=".66"/></g><text x="92" y="150" font-family="Georgia,serif" font-size="78" font-weight="700" fill="#241F22">new arrivals</text><text x="96" y="208" font-family="Arial,sans-serif" font-size="20" letter-spacing="6" fill="#9A6B82">GLAMO NEPAL COLLECTION</text></svg>
