<svg xmlns="http://www.w3.org/2000/svg" width="1200" height="900" viewBox="0 0 1200 900" role="img" aria-label="Made in Nepal">
  
  <defs>
    <linearGradient id="bg-editorial-nepal" x1="0" y1="0" x2="1" y2="1">
      <stop offset="0" stop-color="#FFF9F0"/>
      <stop offset="0.58" stop-color="#EED9C5"/>
      <stop offset="1" stop-color="#FFFDFC"/>
    </linearGradient>
    <radialGradient id="halo-editorial-nepal" cx="63%" cy="26%" r="64%">
      <stop offset="0" stop-color="#FFFFFF" stop-opacity="0.96"/>
      <stop offset="0.54" stop-color="#FFFFFF" stop-opacity="0.32"/>
      <stop offset="1" stop-color="#FFFFFF" stop-opacity="0"/>
    </radialGradient>
    <linearGradient id="glass-editorial-nepal" x1="0" x2="1">
      <stop offset="0" stop-color="#FFFFFF" stop-opacity="0.98"/>
      <stop offset="0.45" stop-color="#FFFFFF" stop-opacity="0.84"/>
      <stop offset="1" stop-color="#F9EAF2" stop-opacity="0.92"/>
    </linearGradient>
    <filter id="shadow-editorial-nepal" x="-40%" y="-40%" width="180%" height="180%">
      <feDropShadow dx="0" dy="28" stdDeviation="26" flood-color="#1A0A1E" flood-opacity="0.22"/>
    </filter>
    <filter id="softshadow-editorial-nepal" x="-50%" y="-50%" width="200%" height="200%">
      <feDropShadow dx="0" dy="16" stdDeviation="18" flood-color="#8B3A8F" flood-opacity="0.16"/>
    </filter>
  </defs>
  <rect width="1200" height="900" fill="url(#bg-editorial-nepal)"/>
  <circle cx="980" cy="154" r="196" fill="#FFFFFF" opacity="0.48"/>
  <circle cx="168" cy="724" r="168" fill="#FFFFFF" opacity="0.38"/>
  <circle cx="214" cy="152" r="58" fill="#EDD2C2" opacity="0.52"/>
  <path d="M0 638 C218 510 420 680 602 540 C770 410 958 532 1200 402 L1200 900 L0 900Z" fill="#FFFDFC" opacity=".84"/>
  <g transform="translate(-34 114) scale(.76)"><g filter="url(#shadow-editorial-nepal)">
    <rect x="459.0" y="227" width="82" height="74" rx="22" fill="#7A4F3B"/>
    <rect x="375.0" y="285" width="250" height="470" rx="78" fill="url(#glass-editorial-nepal)"/>
    <rect x="420.0" y="393" width="160" height="196" rx="54" fill="#EDD2C2" opacity="0.60"/>
    <rect x="412.0" y="525" width="176" height="16" rx="8" fill="#A06A49" opacity="0.42"/>
    <rect x="417.0" y="563" width="166" height="14" rx="7" fill="#C9A84C" opacity="0.56"/>
    <text x="500" y="631" text-anchor="middle" font-family="DM Sans, Arial, sans-serif" font-size="23" font-weight="700" letter-spacing="3" fill="#241F22">GLAMO</text>
    <text x="500" y="673" text-anchor="middle" font-family="Cormorant Garamond, Georgia, serif" font-size="33" font-weight="600" fill="#A06A49">Hydra Serum</text>
    <line x1="402.0" y1="719" x2="598.0" y2="719" stroke="#C9A84C" stroke-width="10" stroke-linecap="round" opacity="0.8"/>
    <path d="M569.0 327 C599.0 391 597.0 601 567.0 705" stroke="#FFFFFF" stroke-width="22" stroke-linecap="round" opacity="0.62"/>
  </g></g>
  <g transform="translate(246 54) scale(.86)"><g filter="url(#shadow-editorial-nepal)">
    <ellipse cx="500" cy="334" rx="190" ry="56" fill="#7A4F3B"/>
    <rect x="310" y="332" width="380" height="100" rx="34" fill="#7A4F3B"/>
    <path d="M278 427 H722 L660 760 Q500 838 340 760 Z" fill="url(#glass-editorial-nepal)"/>
    <ellipse cx="500" cy="427" rx="222" ry="62" fill="#FFFFFF" opacity="0.88"/>
    <rect x="382" y="537" width="236" height="102" rx="36" fill="#EDD2C2" opacity="0.60"/>
    <text x="500" y="580" text-anchor="middle" font-family="DM Sans, Arial, sans-serif" font-size="23" font-weight="700" letter-spacing="3" fill="#241F22">GLAMO</text>
    <text x="500" y="622" text-anchor="middle" font-family="Cormorant Garamond, Georgia, serif" font-size="33" font-weight="600" fill="#A06A49">Glow Cream</text>
    <line x1="390.0" y1="668" x2="610.0" y2="668" stroke="#C9A84C" stroke-width="10" stroke-linecap="round" opacity="0.8"/>
    <path d="M670 486 C702 565 674 688 618 757" stroke="#FFFFFF" stroke-width="21" stroke-linecap="round" opacity="0.52"/>
  </g></g>
  <g transform="translate(612 116) scale(.78)"><g filter="url(#shadow-editorial-nepal)">
    <path d="M375 250 H625 L668 776 Q500 845 332 776 Z" fill="url(#glass-editorial-nepal)"/>
    <rect x="376" y="212" width="248" height="74" rx="24" fill="#7A4F3B"/>
    <rect x="405" y="414" width="190" height="220" rx="50" fill="#EDD2C2" opacity="0.58"/>
    <line x1="405" y1="681" x2="595" y2="681" stroke="#C9A84C" stroke-width="13" stroke-linecap="round"/>
    <text x="500" y="496" text-anchor="middle" font-family="DM Sans, Arial, sans-serif" font-size="23" font-weight="700" letter-spacing="3" fill="#241F22">GLAMO</text>
    <text x="500" y="538" text-anchor="middle" font-family="Cormorant Garamond, Georgia, serif" font-size="33" font-weight="600" fill="#A06A49">Daily SPF</text>
    <line x1="405.0" y1="584" x2="595.0" y2="584" stroke="#C9A84C" stroke-width="10" stroke-linecap="round" opacity="0.8"/>
    <path d="M621 312 C650 416 642 598 592 745" stroke="#FFFFFF" stroke-width="20" stroke-linecap="round" opacity="0.58"/>
  </g></g>
  <g transform="translate(756 426) scale(.48)"><g filter="url(#shadow-editorial-nepal)">
    <rect x="428" y="222" width="144" height="78" rx="25" fill="#7A4F3B"/>
    <rect x="458" y="176" width="84" height="72" rx="18" fill="#C9A84C"/>
    <path d="M312 333 H688 L644 756 Q500 838 356 756 Z" fill="url(#glass-editorial-nepal)"/>
    <rect x="389" y="486" width="222" height="138" rx="48" fill="#EDD2C2" opacity="0.58"/>
    <text x="500" y="533" text-anchor="middle" font-family="DM Sans, Arial, sans-serif" font-size="23" font-weight="700" letter-spacing="3" fill="#241F22">GLAMO</text>
    <text x="500" y="575" text-anchor="middle" font-family="Cormorant Garamond, Georgia, serif" font-size="33" font-weight="600" fill="#A06A49">Rose Mist</text>
    <line x1="390.0" y1="621" x2="610.0" y2="621" stroke="#C9A84C" stroke-width="10" stroke-linecap="round" opacity="0.8"/>
    <path d="M647 386 C674 490 644 646 594 752" stroke="#FFFFFF" stroke-width="22" stroke-linecap="round" opacity="0.5"/>
  </g></g>
  <ellipse cx="605" cy="794" rx="378" ry="54" fill="#1A0A1E" opacity=".08"/>
  <g opacity=".62">
    <path d="M178 356 C134 330 134 265 196 250 C232 288 222 340 178 356Z" fill="#A06A49" opacity=".28"/>
    <path d="M1000 560 C1046 530 1106 562 1098 620 C1044 632 1004 607 1000 560Z" fill="#C9A84C" opacity=".27"/>
    <path d="M176 575 l20 36 40 9 -35 21 -5 41 -29 -30 -42 9 21 -38 -22 -36 42 8z" fill="#C9A84C" opacity=".40"/>
  </g>
</svg>