<svg xmlns="http://www.w3.org/2000/svg" viewBox="0 0 1440 760" width="100%" height="100%">
  <defs>
    <linearGradient id="heroBg" x1="0" y1="0" x2="1" y2="1">
      <stop offset="0%" stop-color="#FDF6F9"/>
      <stop offset="50%" stop-color="#F0E5F5"/>
      <stop offset="100%" stop-color="#FDF6F9"/>
    </linearGradient>
    <radialGradient id="blobRight" cx="0.5" cy="0.5" r="0.5">
      <stop offset="0%" stop-color="#D4A0D7" stop-opacity="0.35"/>
      <stop offset="100%" stop-color="#D4A0D7" stop-opacity="0"/>
    </radialGradient>
    <radialGradient id="blobLeft" cx="0.5" cy="0.5" r="0.5">
      <stop offset="0%" stop-color="#8B3A8F" stop-opacity="0.12"/>
      <stop offset="100%" stop-color="#8B3A8F" stop-opacity="0"/>
    </radialGradient>
    <radialGradient id="pearlGrad" cx="0.35" cy="0.35" r="0.65">
      <stop offset="0%" stop-color="#FFFFFF"/>
      <stop offset="50%" stop-color="#D4A0D7" stop-opacity="0.4"/>
      <stop offset="100%" stop-color="#D4A0D7" stop-opacity="0"/>
    </radialGradient>
    <filter id="grain">
      <feTurbulence type="fractalNoise" baseFrequency="0.65" numOctaves="3" stitchTiles="stitch"/>
      <feColorMatrix type="saturate" values="0"/>
    </filter>
    <filter id="blur120">
      <feGaussianBlur stdDeviation="120"/>
    </filter>
    <filter id="blur80">
      <feGaussianBlur stdDeviation="80"/>
    </filter>
  </defs>

  <!-- Base gradient -->
  <rect width="1440" height="760" fill="url(#heroBg)"/>

  <!-- Large soft blob, right side -->
  <ellipse cx="1540" cy="-50" rx="600" ry="600" fill="url(#blobRight)" filter="url(#blur120)"/>

  <!-- Medium soft blob, bottom-left -->
  <ellipse cx="-80" cy="710" rx="400" ry="400" fill="url(#blobLeft)" filter="url(#blur80)"/>

  <!-- Gold geometric accent arcs (top-right quadrant, 3/4 circles) -->
  <g id="goldArcs" opacity="0.2" fill="none" stroke="#C9A84C" stroke-width="0.75">
    <path d="M 1200 200 A 80 80 0 1 1 1200 280"/>
    <path d="M 1200 140 A 140 140 0 1 1 1200 340"/>
    <path d="M 1200 80 A 200 200 0 1 1 1200 400"/>
  </g>

  <!-- Scattered petals (organic, asymmetrical) -->
  <g id="petals" fill="#8B3A8F">
    <path d="M 320 95 Q 335 70 350 95 Q 335 120 320 95 Z" opacity="0.10"/>
    <path d="M 580 55 Q 598 25 616 55 Q 598 85 580 55 Z" opacity="0.08"/>
    <path d="M 180 180 Q 200 155 220 180 Q 200 205 180 180 Z" opacity="0.12"/>
    <path d="M 750 130 Q 768 100 786 130 Q 768 160 750 130 Z" opacity="0.09"/>
  </g>

  <!-- Fine gold line accent with diamond (left side, mid-height) -->
  <g id="goldLineAccent">
    <line x1="40" y1="380" x2="100" y2="380" stroke="#C9A84C" stroke-width="1"/>
    <text x="108" y="384" fill="#C9A84C" font-size="8" font-family="serif">&#9670;</text>
  </g>

  <!-- Pearl dots (floating spheres) -->
  <g id="pearlDots">
    <circle cx="920" cy="280" r="8" fill="url(#pearlGrad)"/>
    <circle cx="1050" cy="350" r="12" fill="url(#pearlGrad)"/>
    <circle cx="780" cy="420" r="6" fill="url(#pearlGrad)"/>
    <circle cx="1100" cy="220" r="10" fill="url(#pearlGrad)"/>
    <circle cx="650" cy="320" r="7" fill="url(#pearlGrad)"/>
    <circle cx="850" cy="180" r="9" fill="url(#pearlGrad)"/>
    <circle cx="970" cy="450" r="8" fill="url(#pearlGrad)"/>
  </g>

  <!-- Grain texture overlay -->
  <rect width="1440" height="760" filter="url(#grain)" opacity="0.03"/>
</svg>