<svg xmlns="http://www.w3.org/2000/svg" width="1300" height="980" viewBox="0 0 1300 980" role="img" aria-label="Curated shelf essentials"><defs><linearGradient id="bg" x1="0" y1="0" x2="1" y2="1"><stop stop-color="#FCE2E7"/><stop offset=".6" stop-color="#FFF6EF"/><stop offset="1" stop-color="#fff"/></linearGradient><filter id="s"><feDropShadow dx="0" dy="36" stdDeviation="34" flood-color="#432134" flood-opacity="0.16"/></filter></defs><rect width="1300" height="980" fill="url(#bg)"/><circle cx="1050" cy="172" r="190" fill="#D98BA3" opacity=".28"/><circle cx="286" cy="806" r="150" fill="#fff" opacity=".58"/><path d="M0 720 C210 600 360 790 570 650 C780 510 960 650 1300 520 L1300 980 L0 980Z" fill="#fff" opacity=".48"/><g filter="url(#s)"><rect x="500" y="230" width="205" height="470" rx="80" fill="#fff"/><rect x="542" y="308" width="122" height="190" rx="48" fill="#FCE2E7"/><rect x="546" y="152" width="112" height="120" rx="28" fill="#8B3A5B"/><line x1="546" y1="410" x2="660" y2="410" stroke="#D98BA3" stroke-width="16" stroke-linecap="round"/><rect x="720" y="318" width="165" height="350" rx="64" fill="#fff"/><rect x="755" y="382" width="94" height="132" rx="38" fill="#FCE2E7"/><rect x="760" y="246" width="82" height="92" rx="24" fill="#D98BA3"/><circle cx="427" cy="556" r="112" fill="#fff"/><circle cx="427" cy="556" r="82" fill="#FCE2E7"/><path d="M348 568 a80 64 0 0 1 158 0" fill="#D98BA3" opacity=".68"/></g><text x="86" y="150" font-family="Georgia,serif" font-size="82" font-weight="700" fill="#8B3A5B">Curated shelf essentials</text><text x="90" y="208" font-family="Arial,sans-serif" font-size="24" letter-spacing="5" fill="#70656B">SOFT GLAM · SKINCARE · NPR PRICING</text></svg>