<svg xmlns="http://www.w3.org/2000/svg" width="900" height="900" viewBox="0 0 900 900" role="img" aria-label="Bodycare">
  
  <defs>
    <linearGradient id="bg-cat-bodycare" x1="0" y1="0" x2="1" y2="1">
      <stop offset="0" stop-color="#FFF9F0"/>
      <stop offset="0.58" stop-color="#EED9C5"/>
      <stop offset="1" stop-color="#FFFDFC"/>
    </linearGradient>
    <radialGradient id="halo-cat-bodycare" cx="63%" cy="26%" r="64%">
      <stop offset="0" stop-color="#FFFFFF" stop-opacity="0.96"/>
      <stop offset="0.54" stop-color="#FFFFFF" stop-opacity="0.32"/>
      <stop offset="1" stop-color="#FFFFFF" stop-opacity="0"/>
    </radialGradient>
    <linearGradient id="glass-cat-bodycare" x1="0" x2="1">
      <stop offset="0" stop-color="#FFFFFF" stop-opacity="0.98"/>
      <stop offset="0.45" stop-color="#FFFFFF" stop-opacity="0.84"/>
      <stop offset="1" stop-color="#F9EAF2" stop-opacity="0.92"/>
    </linearGradient>
    <filter id="shadow-cat-bodycare" x="-40%" y="-40%" width="180%" height="180%">
      <feDropShadow dx="0" dy="28" stdDeviation="26" flood-color="#1A0A1E" flood-opacity="0.22"/>
    </filter>
    <filter id="softshadow-cat-bodycare" x="-50%" y="-50%" width="200%" height="200%">
      <feDropShadow dx="0" dy="16" stdDeviation="18" flood-color="#8B3A8F" flood-opacity="0.16"/>
    </filter>
  </defs>
  <rect width="900" height="900" rx="0" fill="url(#bg-cat-bodycare)"/>
  <circle cx="710" cy="150" r="130" fill="#FFFFFF" opacity="0.52"/>
  <circle cx="150" cy="715" r="122" fill="#FFFFFF" opacity="0.42"/>
  <g transform="translate(-50 -55) scale(.96)"><g filter="url(#shadow-cat-bodycare)">
    <ellipse cx="500" cy="334" rx="190" ry="56" fill="#7A4F3B"/>
    <rect x="310" y="332" width="380" height="100" rx="34" fill="#7A4F3B"/>
    <path d="M278 427 H722 L660 760 Q500 838 340 760 Z" fill="url(#glass-cat-bodycare)"/>
    <ellipse cx="500" cy="427" rx="222" ry="62" fill="#FFFFFF" opacity="0.88"/>
    <rect x="382" y="537" width="236" height="102" rx="36" fill="#EDD2C2" opacity="0.60"/>
    <text x="500" y="580" text-anchor="middle" font-family="DM Sans, Arial, sans-serif" font-size="23" font-weight="700" letter-spacing="3" fill="#241F22">GLAMO</text>
    <text x="500" y="622" text-anchor="middle" font-family="Cormorant Garamond, Georgia, serif" font-size="33" font-weight="600" fill="#A06A49">Bodycare</text>
    <line x1="390.0" y1="668" x2="610.0" y2="668" stroke="#C9A84C" stroke-width="10" stroke-linecap="round" opacity="0.8"/>
    <path d="M670 486 C702 565 674 688 618 757" stroke="#FFFFFF" stroke-width="21" stroke-linecap="round" opacity="0.52"/>
  </g><g filter="url(#shadow-cat-bodycare)">
    <path d="M375 250 H625 L668 776 Q500 845 332 776 Z" fill="url(#glass-cat-bodycare)"/>
    <rect x="376" y="212" width="248" height="74" rx="24" fill="#7A4F3B"/>
    <rect x="405" y="414" width="190" height="220" rx="50" fill="#EDD2C2" opacity="0.58"/>
    <line x1="405" y1="681" x2="595" y2="681" stroke="#C9A84C" stroke-width="13" stroke-linecap="round"/>
    <text x="500" y="496" text-anchor="middle" font-family="DM Sans, Arial, sans-serif" font-size="23" font-weight="700" letter-spacing="3" fill="#241F22">GLAMO</text>
    <text x="500" y="538" text-anchor="middle" font-family="Cormorant Garamond, Georgia, serif" font-size="33" font-weight="600" fill="#A06A49">Body Lotion</text>
    <line x1="405.0" y1="584" x2="595.0" y2="584" stroke="#C9A84C" stroke-width="10" stroke-linecap="round" opacity="0.8"/>
    <path d="M621 312 C650 416 642 598 592 745" stroke="#FFFFFF" stroke-width="20" stroke-linecap="round" opacity="0.58"/>
  </g></g>
  <rect x="75" y="694" width="750" height="118" rx="44" fill="#FFFFFF" opacity=".78"/>
  <text x="450" y="752" text-anchor="middle" font-family="Cormorant Garamond, Georgia" font-size="52" font-weight="700" fill="#241F22">Bodycare</text>
  <text x="450" y="790" text-anchor="middle" font-family="DM Sans, Arial" font-size="17" font-weight="700" letter-spacing="4" fill="#A06A49">GLAMO EDIT</text>
</svg>