<svg xmlns="http://www.w3.org/2000/svg" width="900" height="900" viewBox="0 0 900 900" role="img" aria-label="Tools">
  
  <defs>
    <linearGradient id="bg-cat-tools" x1="0" y1="0" x2="1" y2="1">
      <stop offset="0" stop-color="#FFFDF8"/>
      <stop offset="0.58" stop-color="#EDE3D8"/>
      <stop offset="1" stop-color="#FFFDFC"/>
    </linearGradient>
    <radialGradient id="halo-cat-tools" cx="63%" cy="26%" r="64%">
      <stop offset="0" stop-color="#FFFFFF" stop-opacity="0.96"/>
      <stop offset="0.54" stop-color="#FFFFFF" stop-opacity="0.32"/>
      <stop offset="1" stop-color="#FFFFFF" stop-opacity="0"/>
    </radialGradient>
    <linearGradient id="glass-cat-tools" x1="0" x2="1">
      <stop offset="0" stop-color="#FFFFFF" stop-opacity="0.98"/>
      <stop offset="0.45" stop-color="#FFFFFF" stop-opacity="0.84"/>
      <stop offset="1" stop-color="#F9EAF2" stop-opacity="0.92"/>
    </linearGradient>
    <filter id="shadow-cat-tools" x="-40%" y="-40%" width="180%" height="180%">
      <feDropShadow dx="0" dy="28" stdDeviation="26" flood-color="#1A0A1E" flood-opacity="0.22"/>
    </filter>
    <filter id="softshadow-cat-tools" x="-50%" y="-50%" width="200%" height="200%">
      <feDropShadow dx="0" dy="16" stdDeviation="18" flood-color="#8B3A8F" flood-opacity="0.16"/>
    </filter>
  </defs>
  <rect width="900" height="900" rx="0" fill="url(#bg-cat-tools)"/>
  <circle cx="710" cy="150" r="130" fill="#FFFFFF" opacity="0.52"/>
  <circle cx="150" cy="715" r="122" fill="#FFFFFF" opacity="0.42"/>
  <g transform="translate(-50 -55) scale(.96)"><g filter="url(#shadow-cat-tools)">
    <rect x="410" y="390" width="48" height="380" rx="24" fill="#856E5E"/>
    <rect x="520" y="365" width="50" height="405" rx="25" fill="#C9A84C"/>
    <path d="M372 290 C378 214 500 208 506 292 C462 340 412 344 372 290Z" fill="#332A34"/>
    <path d="M492 278 C499 195 638 196 646 280 C606 338 538 340 492 278Z" fill="#272027"/>
    <text x="500" y="842" text-anchor="middle" font-family="DM Sans, Arial, sans-serif" font-size="23" font-weight="700" letter-spacing="3" fill="#241F22">GLAMO</text>
    <text x="500" y="884" text-anchor="middle" font-family="Cormorant Garamond, Georgia, serif" font-size="33" font-weight="600" fill="#856E5E">Beauty Tools</text>
    <line x1="370.0" y1="930" x2="630.0" y2="930" stroke="#C9A84C" stroke-width="10" stroke-linecap="round" opacity="0.8"/>
  </g></g>
  <rect x="75" y="694" width="750" height="118" rx="44" fill="#FFFFFF" opacity=".78"/>
  <text x="450" y="752" text-anchor="middle" font-family="Cormorant Garamond, Georgia" font-size="52" font-weight="700" fill="#241F22">Tools</text>
  <text x="450" y="790" text-anchor="middle" font-family="DM Sans, Arial" font-size="17" font-weight="700" letter-spacing="4" fill="#856E5E">GLAMO EDIT</text>
</svg>